<?xml version="1.0" standalone="no"?>

<!DOCTYPE svg PUBLIC "-//W3C//DTD SVG 1.1//EN" "http://www.w3.org/Graphics/SVG/1.1/DTD/svg11.dtd">

<svg width="100" height="2600" version="1.1" xmlns="http://www.w3.org/2000/svg">
	<defs>
		<!-- background gradients BEGIN -->
        <linearGradient id="grad-1" x1="0%" y1="0%" x2="0%" y2="100%">
			<stop offset="0%" style="stop-color:#ffffff;stop-opacity:1"/>
			<stop offset="100%" style="stop-color:#e8e8e8;stop-opacity:1"/>
		</linearGradient>
		<linearGradient id="grad-2" x1="0%" y1="0%" x2="0%" y2="100%">
			<stop offset="45%" style="stop-color:#dc9688;stop-opacity:1"/>
			<stop offset="100%" style="stop-color:#b54029;stop-opacity:1"/>
		</linearGradient>
		<linearGradient id="grad-3" x1="0%" y1="0%" x2="0%" y2="100%">
			<stop offset="0%" style="stop-color:#b54029;stop-opacity:1"/>
			<stop offset="55%" style="stop-color:#dc9688;stop-opacity:1"/>
		</linearGradient>
		<linearGradient id="grad-4" x1="0%" y1="0%" x2="0%" y2="100%">
			<stop offset="45%" style="stop-color:#A9D37D;stop-opacity:1"/>
			<stop offset="100%" style="stop-color:#84C544;stop-opacity:1"/>
		</linearGradient>
		<linearGradient id="grad-5" x1="0%" y1="0%" x2="0%" y2="100%">
			<stop offset="0%" style="stop-color:#84C544;stop-opacity:1"/>
			<stop offset="55%" style="stop-color:#A9D37D;stop-opacity:1"/>
		</linearGradient>
		
		
		<!-- temp --> 		
        <linearGradient id="grad-6" x1="0%" y1="0%" x2="0%" y2="100%">
			<stop offset="0%" style="stop-color:#000000;stop-opacity:1"/>
			<stop offset="100%" style="stop-color:#000000;stop-opacity:1"/>
		</linearGradient>
        <linearGradient id="grad-7" x1="0%" y1="0%" x2="0%" y2="100%">
			<stop offset="0%" style="stop-color:#000000;stop-opacity:1"/>
			<stop offset="100%" style="stop-color:#000000;stop-opacity:1"/>
		</linearGradient>
        <linearGradient id="grad-8" x1="0%" y1="0%" x2="0%" y2="100%">
			<stop offset="0%" style="stop-color:#000000;stop-opacity:1"/>
			<stop offset="100%" style="stop-color:#000000;stop-opacity:1"/>
		</linearGradient>
        <linearGradient id="grad-9" x1="0%" y1="0%" x2="0%" y2="100%">
			<stop offset="0%" style="stop-color:#000000;stop-opacity:1"/>
			<stop offset="100%" style="stop-color:#000000;stop-opacity:1"/>
		</linearGradient>
        <linearGradient id="grad-10" x1="0%" y1="0%" x2="0%" y2="100%">
			<stop offset="0%" style="stop-color:#000000;stop-opacity:1"/>
			<stop offset="100%" style="stop-color:#000000;stop-opacity:1"/>
		</linearGradient>
        <linearGradient id="grad-11" x1="0%" y1="0%" x2="0%" y2="100%">
			<stop offset="0%" style="stop-color:#000000;stop-opacity:1"/>
			<stop offset="100%" style="stop-color:#000000;stop-opacity:1"/>
		</linearGradient>
        <linearGradient id="grad-12" x1="0%" y1="0%" x2="0%" y2="100%">
			<stop offset="0%" style="stop-color:#000000;stop-opacity:1"/>
			<stop offset="100%" style="stop-color:#000000;stop-opacity:1"/>
		</linearGradient>
        <linearGradient id="grad-13" x1="0%" y1="0%" x2="0%" y2="100%">
			<stop offset="0%" style="stop-color:#000000;stop-opacity:1"/>
			<stop offset="100%" style="stop-color:#000000;stop-opacity:1"/>
		</linearGradient>
        <linearGradient id="grad-14" x1="0%" y1="0%" x2="0%" y2="100%">
			<stop offset="0%" style="stop-color:#000000;stop-opacity:1"/>
			<stop offset="100%" style="stop-color:#000000;stop-opacity:1"/>
		</linearGradient>
        <linearGradient id="grad-15" x1="0%" y1="0%" x2="0%" y2="100%">
			<stop offset="0%" style="stop-color:#000000;stop-opacity:1"/>
			<stop offset="100%" style="stop-color:#000000;stop-opacity:1"/>
		</linearGradient>
        <linearGradient id="grad-16" x1="0%" y1="0%" x2="0%" y2="100%">
			<stop offset="0%" style="stop-color:#000000;stop-opacity:1"/>
			<stop offset="100%" style="stop-color:#000000;stop-opacity:1"/>
		</linearGradient>
        <linearGradient id="grad-17" x1="0%" y1="0%" x2="0%" y2="100%">
			<stop offset="0%" style="stop-color:#000000;stop-opacity:1"/>
			<stop offset="100%" style="stop-color:#000000;stop-opacity:1"/>
		</linearGradient>
        <linearGradient id="grad-18" x1="0%" y1="0%" x2="0%" y2="100%">
			<stop offset="0%" style="stop-color:#000000;stop-opacity:1"/>
			<stop offset="100%" style="stop-color:#000000;stop-opacity:1"/>
		</linearGradient>
        <linearGradient id="grad-19" x1="0%" y1="0%" x2="0%" y2="100%">
			<stop offset="0%" style="stop-color:#000000;stop-opacity:1"/>
			<stop offset="100%" style="stop-color:#000000;stop-opacity:1"/>
		</linearGradient>
        <linearGradient id="grad-20" x1="0%" y1="0%" x2="0%" y2="100%">
			<stop offset="0%" style="stop-color:#000000;stop-opacity:1"/>
			<stop offset="100%" style="stop-color:#000000;stop-opacity:1"/>
		</linearGradient>
        <linearGradient id="grad-21" x1="0%" y1="0%" x2="0%" y2="100%">
			<stop offset="0%" style="stop-color:#000000;stop-opacity:1"/>
			<stop offset="100%" style="stop-color:#000000;stop-opacity:1"/>
		</linearGradient>
        <linearGradient id="grad-22" x1="0%" y1="0%" x2="0%" y2="100%">
			<stop offset="0%" style="stop-color:#000000;stop-opacity:1"/>
			<stop offset="100%" style="stop-color:#000000;stop-opacity:1"/>
		</linearGradient>
        <linearGradient id="grad-23" x1="0%" y1="0%" x2="0%" y2="100%">
			<stop offset="0%" style="stop-color:#000000;stop-opacity:1"/>
			<stop offset="100%" style="stop-color:#000000;stop-opacity:1"/>
		</linearGradient>
        <linearGradient id="grad-24" x1="0%" y1="0%" x2="0%" y2="100%">
			<stop offset="0%" style="stop-color:#000000;stop-opacity:1"/>
			<stop offset="100%" style="stop-color:#000000;stop-opacity:1"/>
		</linearGradient>
        <linearGradient id="grad-25" x1="0%" y1="0%" x2="0%" y2="100%">
			<stop offset="0%" style="stop-color:#000000;stop-opacity:1"/>
			<stop offset="100%" style="stop-color:#000000;stop-opacity:1"/>
		</linearGradient>
        <linearGradient id="grad-26" x1="0%" y1="0%" x2="0%" y2="100%">
			<stop offset="0%" style="stop-color:#000000;stop-opacity:1"/>
			<stop offset="100%" style="stop-color:#000000;stop-opacity:1"/>
		</linearGradient>
        <!-- background gradients END -->
	</defs>
	
	<rect x="0" y="0" width="100" height="100" style="fill:url(#grad-1)" />
	<rect x="0" y="100" width="100" height="100" style="fill:url(#grad-2)" />
	
    <!-- temp -->    
    <rect x="0" y="200" width="100" height="100" style="fill:url(#grad-3)" />
    <rect x="0" y="300" width="100" height="100" style="fill:url(#grad-4)" />
	<rect x="0" y="400" width="100" height="100" style="fill:url(#grad-5)" />
    <rect x="0" y="500" width="100" height="100" style="fill:url(#grad-6)" />
    <rect x="0" y="600" width="100" height="100" style="fill:url(#grad-7)" />
    <rect x="0" y="700" width="100" height="100" style="fill:url(#grad-8)" />
    <rect x="0" y="800" width="100" height="100" style="fill:url(#grad-9)" />
    <rect x="0" y="900" width="100" height="100" style="fill:url(#grad-10)" />
    <rect x="0" y="1000" width="100" height="100" style="fill:url(#grad-11)" />
    <rect x="0" y="1100" width="100" height="100" style="fill:url(#grad-12)" />
    <rect x="0" y="1200" width="100" height="100" style="fill:url(#grad-13)" />
    <rect x="0" y="1300" width="100" height="100" style="fill:url(#grad-14)" />
    <rect x="0" y="1400" width="100" height="100" style="fill:url(#grad-15)" />
    <rect x="0" y="1500" width="100" height="100" style="fill:url(#grad-16)" />
    <rect x="0" y="1600" width="100" height="100" style="fill:url(#grad-17)" />
    <rect x="0" y="1700" width="100" height="100" style="fill:url(#grad-18)" />
    <rect x="0" y="1800" width="100" height="100" style="fill:url(#grad-19)" />
    <rect x="0" y="1900" width="100" height="100" style="fill:url(#grad-20)" />
    <rect x="0" y="2000" width="100" height="100" style="fill:url(#grad-21)" />
    <rect x="0" y="2100" width="100" height="100" style="fill:url(#grad-22)" />
    <rect x="0" y="2200" width="100" height="100" style="fill:url(#grad-23)" />
    <rect x="0" y="2300" width="100" height="100" style="fill:url(#grad-24)" />
    <rect x="0" y="2400" width="100" height="100" style="fill:url(#grad-25)" />
    <rect x="0" y="2500" width="100" height="100" style="fill:url(#grad-26)" />
</svg>